<svg xmlns="http://www.w3.org/2000/svg" xmlns:xlink="http://www.w3.org/1999/xlink" viewBox="0 0 457.13 323.32"><defs><style>.cls-1{fill:#5fb387;opacity:0.31;}.cls-2{fill:url(#Dégradé_sans_nom_7);}.cls-3{fill:url(#Dégradé_sans_nom_7-2);}.cls-4{fill:url(#Dégradé_sans_nom_7-3);}.cls-5{fill:url(#Dégradé_sans_nom_7-4);}.cls-6{fill:url(#Dégradé_sans_nom_7-5);}.cls-11,.cls-12,.cls-7{fill:none;}.cls-7{stroke:#262525;stroke-width:3px;}.cls-10,.cls-11,.cls-12,.cls-7{stroke-miterlimit:10;}.cls-8{fill:url(#Dégradé_sans_nom_7-6);}.cls-10,.cls-9{fill:#fff;}.cls-10,.cls-12{stroke:#000;}.cls-11{stroke:#fff;}.cls-13{fill:#262525;}.cls-14{fill:url(#Dégradé_sans_nom_7-7);}</style><linearGradient id="Dégradé_sans_nom_7" y1="190.21" x2="72.26" y2="190.21" gradientUnits="userSpaceOnUse"><stop offset="0" stop-color="#be85ed"/><stop offset="1" stop-color="#438dff"/></linearGradient><linearGradient id="Dégradé_sans_nom_7-2" x1="83.55" y1="190.21" x2="166.86" y2="190.21" xlink:href="#Dégradé_sans_nom_7"/><linearGradient id="Dégradé_sans_nom_7-3" x1="176.05" y1="190.21" x2="259.36" y2="190.21" xlink:href="#Dégradé_sans_nom_7"/><linearGradient id="Dégradé_sans_nom_7-4" x1="265.07" y1="190.21" x2="363.15" y2="190.21" xlink:href="#Dégradé_sans_nom_7"/><linearGradient id="Dégradé_sans_nom_7-5" x1="373.83" y1="190.21" x2="457.13" y2="190.21" xlink:href="#Dégradé_sans_nom_7"/><linearGradient id="Dégradé_sans_nom_7-6" x1="116.44" y1="19.46" x2="200.47" y2="19.46" xlink:href="#Dégradé_sans_nom_7"/><linearGradient id="Dégradé_sans_nom_7-7" x1="227.49" y1="256.54" x2="282.02" y2="256.54" xlink:href="#Dégradé_sans_nom_7"/></defs><title>404</title><g id="Calque_2" data-name="Calque 2"><g id="OBJEKTS"><path class="cls-1" d="M422.37,245.41H30.87a8.76,8.76,0,0,1-8.76-8.76h0a8.77,8.77,0,0,1,8.76-8.77h391.5a8.77,8.77,0,0,1,8.76,8.77h0A8.76,8.76,0,0,1,422.37,245.41Z"/><polygon class="cls-2" points="28.8 200.15 65.55 200.15 65.55 179.04 28.8 179.04 28.8 168.86 70.64 168.86 70.64 146.76 0 146.76 0 233.67 72.26 233.67 72.26 211.57 28.8 211.57 28.8 200.15"/><path class="cls-3" d="M160.78,195.8A30.75,30.75,0,0,0,165,179.54a30.06,30.06,0,0,0-18.62-28.81q-8.94-4-21-4H83.55v86.91h29.31V211.82h7.94l14.78,21.85h31.28l-18.25-26.82A29.79,29.79,0,0,0,160.78,195.8Zm-28.31-8.75q-3,2.67-8.94,2.67H112.86V169.36h10.67q6,0,8.94,2.66a11,11,0,0,1,0,15Z"/><path class="cls-4" d="M253.27,195.8a30.66,30.66,0,0,0,4.22-16.26,30.06,30.06,0,0,0-18.62-28.81q-8.94-4-21-4H176.05v86.91h29.3V211.82h8l14.77,21.85h31.29l-18.25-26.82A29.76,29.76,0,0,0,253.27,195.8ZM225,187.05q-3,2.67-8.94,2.67H205.35V169.36H216q6,0,8.94,2.66a11,11,0,0,1,0,15Z"/><path class="cls-5" d="M339.31,150.61a57.29,57.29,0,0,0-50.4,0,44.55,44.55,0,0,0,0,79.21,57.38,57.38,0,0,0,50.4,0,44.55,44.55,0,0,0,0-79.21ZM331,201.7a19,19,0,0,1-7,7.57,19.58,19.58,0,0,1-19.74,0,19.12,19.12,0,0,1-7-7.57,26.67,26.67,0,0,1,0-23,19.12,19.12,0,0,1,7-7.57,19.58,19.58,0,0,1,19.74,0,19,19,0,0,1,7,7.57,26.57,26.57,0,0,1,0,23Z"/><path class="cls-6" d="M438.88,206.85a29.73,29.73,0,0,0,12.17-11,30.75,30.75,0,0,0,4.22-16.26,30.06,30.06,0,0,0-18.62-28.81q-8.94-4-21-4H373.83v86.91h29.3V211.82h7.94l14.78,21.85h31.28Zm-16.14-19.8q-3,2.67-8.94,2.67H403.13V169.36H413.8q6,0,8.94,2.66a11,11,0,0,1,0,15Z"/><line class="cls-7" x1="158.45" y1="32.73" x2="158.45" y2="54.84"/><rect class="cls-8" x="116.44" width="84.03" height="38.92"/><path class="cls-9" d="M147.69,28v3.51h-3.82V28h-8.71V24.67L141.9,7.38h4l-6.63,17h4.58V18.31h3.82v6.11h1.77V28Z"/><path class="cls-9" d="M164.8,25.67a6.27,6.27,0,0,1-.5,2.57,5.54,5.54,0,0,1-1.37,1.89,5.71,5.71,0,0,1-2,1.18,7.22,7.22,0,0,1-4.74,0,5.54,5.54,0,0,1-2-1.18,5.62,5.62,0,0,1-1.35-1.89,6.11,6.11,0,0,1-.5-2.57V13.28a6.19,6.19,0,0,1,.5-2.58,5.43,5.43,0,0,1,1.37-1.91,5.72,5.72,0,0,1,2-1.18,6.79,6.79,0,0,1,2.35-.4,7.1,7.1,0,0,1,2.39.4,5.58,5.58,0,0,1,3.34,3.09,6.35,6.35,0,0,1,.5,2.58ZM161,13.28a2.47,2.47,0,0,0-4.13-1.79,2.39,2.39,0,0,0-.65,1.79V25.64a2.35,2.35,0,0,0,.65,1.8,2.72,2.72,0,0,0,3.48,0,2.39,2.39,0,0,0,.65-1.8Z"/><path class="cls-9" d="M180,28v3.51h-3.82V28h-8.71V24.67l6.73-17.29h4l-6.63,17h4.58V18.31H180v6.11h1.77V28Z"/><path class="cls-10" d="M316.36,141.05a9.5,9.5,0,0,1,1.74,3.48c.74,2.12,1.44,4.25,2.13,6.39s1.41,4.4,1,6.63a3.1,3.1,0,0,1-1.33,2.25,2.49,2.49,0,0,1-1.72.19,4.94,4.94,0,0,1-3.17-3.13c-.6-1.42-.84-3-1.39-4.41-1-2.53-2.92-5.12-5.73-5.42-1.44-.16-3.3-.31-4.3-1.51s-1.1-4,.32-4.92a4.17,4.17,0,0,1,1.58-.57,20,20,0,0,1,5.35,0c1.55.13,3.24-.17,4.71.49A2.63,2.63,0,0,1,316.36,141.05Z"/><path class="cls-10" d="M163.29,62.41c.28-1.26.55-2.53.8-3.8.54-2.68,2-5.46-.07-7.82-1.85-2.1-5.68-1.38-7.88-.1A6.08,6.08,0,0,0,153,56.93a5,5,0,0,0,4.58,3.84c-.58,1.87-1.11,3.76-1.59,5.65-.69,2.71,1,3.67,3.39,3.15a4.05,4.05,0,0,0,1.73-.66,4.17,4.17,0,0,0,1.2-2.41C162.67,65.14,163,63.78,163.29,62.41Z"/><path d="M307.86,137.79l-1.09-.23c-11.44-2.11-23.89-5.62-35.58-4.54-2.51.23-5,.71-7.52.87-8.52.53-16.68-2.48-24.87-4.27-3.34-.73-6.67-1.12-10-1.81-4.07-.85-8.28,0-12.38-.52-3.58-.47-7.09-2-10.67-1.57-4.64.58-8.74,3.46-10,8.06a14.86,14.86,0,0,0,.23,7.07c.5,2.17,1.37,4.48,3.3,5.59,4.06,2.31,11.7.81,16.2.89,6.08.1,12.15.31,18.23.51,12,.4,24,.81,35.94.51,12.34-.31,24.68,0,37,.42Q307.32,143.28,307.86,137.79Z"/><path class="cls-10" d="M105.26,161.82a16.06,16.06,0,0,0-3.38,7,8.51,8.51,0,0,0-.12,4.53c.55,1.83,2.25,3.53,4.29,3.11a3.1,3.1,0,0,0,2.3-3,2.69,2.69,0,0,0-.91-1.89,14.49,14.49,0,0,1,.28-1.85,1.32,1.32,0,0,1,.27-.63c.59-.58.77.33.73.73s-.47,1.53,0,1.79c.34.13.61-.31.7-.66a23.2,23.2,0,0,0,.54-3.89l.27-3.59a4.66,4.66,0,0,0,0-1.18,2.52,2.52,0,0,0-2.61-2A4.5,4.5,0,0,0,105.26,161.82Z"/><path class="cls-1" d="M339.3,96.93l-.9.43a.62.62,0,0,1-.76-.19,9.51,9.51,0,0,0-2.76-2.51.62.62,0,0,1-.26-.72l.44-1.3a.61.61,0,0,0-.37-.78l-2.64-1a.63.63,0,0,0-.79.36l-.49,1.3a.62.62,0,0,1-.63.4,12.64,12.64,0,0,0-3.78.25.74.74,0,0,1-.79-.28L325,91.71c-.15-.31-.39-.76-.7-.61l-2.55,1.21a.94.94,0,0,0-.28,1.07l.58,1.22a.58.58,0,0,1-.14.73,10.93,10.93,0,0,0-2.31,2.58.6.6,0,0,1-.72.25l-1.22-.46a.62.62,0,0,0-.79.38l-.92,2.61a.61.61,0,0,0,.36.77l1.33.52a.6.6,0,0,1,.39.65,9.42,9.42,0,0,0,.21,3.73.64.64,0,0,1-.33.71l-1.14.54a.66.66,0,0,0-.39.82l1.21,2.56c.14.3.54.29.85.15l1.13-.54a.66.66,0,0,1,.76.21,12.07,12.07,0,0,0,2.66,2.41.63.63,0,0,1,.24.74l-.41,1.09a.63.63,0,0,0,.37.8l2.57.9a.62.62,0,0,0,.79-.39l.35-1.08a.63.63,0,0,1,.67-.42,11,11,0,0,0,3.53-.14.58.58,0,0,1,.65.36l.56,1.17c.14.3.54.28.85.14l2.55-1.21c.31-.15.27-.3.12-.6l-.55-1.17a.76.76,0,0,1,.27-.79,12.24,12.24,0,0,0,2.6-2.82.66.66,0,0,1,.74-.25l1.18.4a.63.63,0,0,0,.79-.38l.94-2.6a.61.61,0,0,0-.39-.79l-1-.33a.61.61,0,0,1-.43-.64,12.38,12.38,0,0,0-.18-3.61.66.66,0,0,1,.31-.72l.9-.42c.31-.15.26-.3.11-.61l-1.21-2.55C339.73,97,339.61,96.79,339.3,96.93Zm-7.95,12.33a5.93,5.93,0,1,1,2.81-7.9A5.93,5.93,0,0,1,331.35,109.26Z"/><path class="cls-1" d="M371.2,114l-1.23.58a.86.86,0,0,1-1-.27,12.65,12.65,0,0,0-3.73-3.38.85.85,0,0,1-.34-1l.59-1.75a.83.83,0,0,0-.5-1l-3.57-1.3a.83.83,0,0,0-1.06.49l-.67,1.75a.81.81,0,0,1-.84.54,16.88,16.88,0,0,0-5.11.34,1,1,0,0,1-1.06-.39l-.78-1.64c-.2-.41-.52-1-.94-.83l-3.44,1.64a1.26,1.26,0,0,0-.38,1.45l.78,1.64a.8.8,0,0,1-.19,1,14.63,14.63,0,0,0-3.12,3.49.8.8,0,0,1-1,.33L342,115a.82.82,0,0,0-1.07.5l-1.24,3.52a.82.82,0,0,0,.48,1l1.8.7a.82.82,0,0,1,.52.87,12.94,12.94,0,0,0,.28,5,.86.86,0,0,1-.44,1l-1.54.73a.9.9,0,0,0-.53,1.11l1.63,3.44c.2.42.74.4,1.15.21l1.53-.73a.9.9,0,0,1,1,.29,16,16,0,0,0,3.59,3.25.85.85,0,0,1,.32,1l-.55,1.47a.83.83,0,0,0,.5,1.08l3.47,1.22a.85.85,0,0,0,1.07-.53l.47-1.46a.83.83,0,0,1,.9-.56,15,15,0,0,0,4.78-.19.77.77,0,0,1,.87.48l.75,1.57c.2.42.74.39,1.16.2l3.44-1.64c.41-.19.36-.4.16-.81l-.75-1.58a1,1,0,0,1,.38-1.06,17,17,0,0,0,3.51-3.81.89.89,0,0,1,1-.34l1.6.54a.84.84,0,0,0,1.06-.5l1.27-3.52a.83.83,0,0,0-.53-1.07l-1.4-.44a.82.82,0,0,1-.58-.87,16.09,16.09,0,0,0-.25-4.87.9.9,0,0,1,.43-1l1.21-.57c.42-.2.35-.41.15-.82L372,114.49C371.77,114.08,371.61,113.8,371.2,114Zm-10.75,16.64A8,8,0,1,1,364.26,120,8,8,0,0,1,360.45,130.64Z"/><path class="cls-1" d="M42.66,293c-2.79-.45-5.63-.64-8.23-1.7-3.13-1.28-5.92-4.42-5.27-7.73.56-2.87,3.51-4.74,6.41-5.08s5.79.5,8.61,1.22a109.61,109.61,0,0,0,14.6,2.68c7.13.81,14.87,1.12,20.46,5.63,3.71,3,6.41,7.77,11.09,8.66a23.7,23.7,0,0,1,2.92.48,2.67,2.67,0,0,1,2,2c.28,2-4.68,2.25-6.09,2.64-4.09,1.12-8,2.61-12,3.77-4.23,1.21-8.78.85-13.11.45s-9.25-1.1-11.77-4.66c-1.31-1.86-1.78-4.27-3.39-5.88a9,9,0,0,0-4.54-2.14C43.79,293.17,43.22,293.06,42.66,293Z"/><path d="M30.71,275.48a7.89,7.89,0,0,0,6,9.43,7.61,7.61,0,0,0,6-1l43.45,9.38,2.45-11L45,272.84a9.27,9.27,0,0,0-4.9-3.38,7.9,7.9,0,0,0-9.39,6Zm6-.37.12-.07a2.47,2.47,0,0,1,.56-.19l.11,0v0a3.21,3.21,0,0,1,1.23,0h0a2.5,2.5,0,0,1,1.76,2.48,2.56,2.56,0,0,1-2,2.33h0l.38-.14a2.64,2.64,0,0,1-1.71.11,2.57,2.57,0,0,1-1.47-1.22A2.55,2.55,0,0,1,36.71,275.11Z"/><line class="cls-11" x1="43.16" y1="280.53" x2="86.62" y2="289.9"/><line class="cls-11" x1="44.16" y1="276.21" x2="87.62" y2="285.58"/><path class="cls-10" d="M81,287.18a10.57,10.57,0,0,0,1.41,8l.36.53a10.61,10.61,0,0,0,13.42,3.23l1.44-.74-8.05-5.56,4.36-6.32,7.92,5.47.1-1.71a10.61,10.61,0,0,0-21-2.9Z"/><path class="cls-1" d="M112.08,280.61c-5.44-.62-12-2.57-13.14-7.92-1-4.63,3-9.14,7.56-10.49s9.42-.44,14.12.24c6.93,1,56.46,1.67,55.06,11.47-.71,4.94-24.35,6-28.94,6.46A160,160,0,0,1,112.08,280.61Z"/><path d="M153.72,264.92l-.8,3.15-37.53-6.58.8-3.15Z"/><path class="cls-10" d="M180.93,265.66l.22.3a6.27,6.27,0,0,1,1.07,4.72,6.52,6.52,0,0,1-7.57,5.15l-36.55-6.19L140,257.59l36.81,5.63A6.71,6.71,0,0,1,180.93,265.66Z"/><path class="cls-10" d="M122.85,253.72l4.83,6.89-.93,2.8-6.25,4.22-14.21-6,1.46-7.95Z"/><line class="cls-12" x1="148.61" y1="263.15" x2="182.29" y2="268.54"/><line class="cls-12" x1="147.88" y1="267.32" x2="181.56" y2="272.71"/><line class="cls-12" x1="141.06" y1="270.14" x2="143.44" y2="257.94"/><line class="cls-10" x1="110.74" y1="261.3" x2="118.68" y2="264.34"/><path class="cls-10" d="M140.09,130.36c-3.77-.53-7.66.63-11.26,1.2l-4.41.87a24.14,24.14,0,0,0-5.49,1.44c-2.61,1.23-4.49,3.63-6,6.11a75.37,75.37,0,0,0-3.95,8c-2,4.4-3.71,8.83-5.53,13.25a.53.53,0,0,0,.27.68c2.68,1.24,5.3,2.59,7.89,4a.21.21,0,0,0,.31-.12c.7-2.22,9.71-17,11.84-18a25.73,25.73,0,0,1,4-1,52.18,52.18,0,0,0,14.72-6.89,4.71,4.71,0,0,0,1.7-2C145.87,134.14,144,130.9,140.09,130.36Z"/><path class="cls-10" d="M254.44,183.32a42.25,42.25,0,0,1-2.15-3.85,6.56,6.56,0,0,0-1.35-2.17,6.18,6.18,0,0,0-3.48-1.2,14.69,14.69,0,0,0-5.45,0,4.14,4.14,0,0,0-2,1c-1.49,1.52-.07,4.23,1.4,5.27s3.48,1.35,5,2.62a13.89,13.89,0,0,1,3.3,4.86l2.49,5.15a1.36,1.36,0,0,0,.69.79,1.18,1.18,0,0,0,.59,0c2.12-.48,3.38-2.8,3.45-5C257.06,187.91,255.81,185.62,254.44,183.32Z"/><path class="cls-10" d="M123.53,144.88a12.51,12.51,0,0,0,4.72,2.77,5.18,5.18,0,0,0,5.43-1.35c1.14-1.41,1.55-3.79,3.34-4.06a3.41,3.41,0,0,1,1.57.24c2.5.83,5,2.21,7.61,1.83a7.32,7.32,0,0,0,4.31-2.49,6.46,6.46,0,0,0,1.76-5.36c-.76-3.84-5.72-4.65-8.87-4.84-4.28-.25-8.65-.2-12.83-1.14-3.09-.7-5.72-.56-8.16,2a8.43,8.43,0,0,0-1.29,9.28A10.33,10.33,0,0,0,123.53,144.88Z"/><path class="cls-10" d="M147.56,121.15c-5.11.53-6.73,3.92-9.37,7.78-2.18,3.2-4.23,7.94-1.41,11.3,2.27,2.7,5.26,3.92,8.23,5.63,2.5,1.44,4.53,2.56,7.72,2.43,7.75-.32,15.58.55,23.42.5,5,0,9.82,0,14.64-1.5,4.22-1.33,5.75-5.44,6.86-9.51s1.72-10.11-1.18-13.76a7.22,7.22,0,0,0-1.3-1.29,10.42,10.42,0,0,0-2.44-1.31,8.55,8.55,0,0,0-5.13-.85c-.39.09-.76.23-1.14.34a56.42,56.42,0,0,1-10.58,1.9,60.28,60.28,0,0,1-12.45-.38C158.23,121.9,152.79,120.62,147.56,121.15Z"/><path d="M243.54,180.8c.23-1.36.7-5-.22-5.9a6.07,6.07,0,0,0-3.19-1.19c-1.44-.33-2.87-.83-4.29-1.24L227,169.91a132.46,132.46,0,0,1-13.94-5c-6.22-2.58-12.7-5.5-19.41-4.82a42.31,42.31,0,0,0-4.61,1.09,13,13,0,0,0-5,2.06,5.94,5.94,0,0,0-1.8,7c2.28,6,8.47,6.33,13.82,7.76a50.15,50.15,0,0,0,8.57,1.13q14.37,1.23,28.64,3.38,3.62.54,7.21,1.14c.66.11,1.5.37,2.29.45C243.09,183,243.35,181.89,243.54,180.8Z"/><path d="M186.13,174.62a2.48,2.48,0,0,0,1.27,0c5.08-1.3,9.5-5.83,12.55-9.86,4.89-6.46,7.87-14,12.47-20.62,1.41-2,3.31-3.42,4.48-5.6a21.36,21.36,0,0,0,2.28-13.33c-1.56-8.34-11.23-10.8-18.59-9.57-4.82.81-9.12,3.61-13.92,4.51a3.79,3.79,0,0,0-1.72.58,1.33,1.33,0,0,0-.36.66c0,5.85,0,11.69,0,17.55-.06,3.65.36,8.31-.13,11.3-.3,1.84-1.75,3.88-2.33,5.7a20.75,20.75,0,0,0-.29,13.21C182.43,170.93,184,174.06,186.13,174.62Z"/><path class="cls-13" d="M160,137c.1.19.19.38.28.57"/><path class="cls-10" d="M158.49,130.76a53.59,53.59,0,0,0,4.42-9.09A53,53,0,0,0,166,109,70.59,70.59,0,0,0,166,97.42c-.68-11.28-.85-22.74-2.08-34-1.16.59-9.55,1.36-9.51,1.08q-2.31,18.75-4.6,37.5a43.62,43.62,0,0,1-1.69,8.73A52.15,52.15,0,0,1,144,119c-2.53,4.58-8.43,12.68-7.29,18"/><path class="cls-13" d="M179.45,125.41v.42"/><path class="cls-11" d="M184.82,149.35a95.05,95.05,0,0,1,11.4-17"/><path d="M160.94,135c-.19-1.62-.52-3.17-.68-4.8a13.44,13.44,0,0,0-.4-2.38l-.08-.21c-1.58,3.27-4.43,5.78-7.33,7.92l8.14,4.58C161.36,140.53,161,135.58,160.94,135Z"/><path d="M132.16,136.45a2.69,2.69,0,0,1-.75,1.5c4.75,2.4,5.6,12.12,5.13,16.71-.31,3.1-1.21,6.12-1.47,9.22-.38,4.61.8,9.5,4,12.88a14.62,14.62,0,0,0,15.51,3.37,17.09,17.09,0,0,0,10.31-12.41c2.83-13.49-10.32-25.39-18.71-34.09-3.3-3.43-7.5-5.85-12.41-5.65a24,24,0,0,0-4.38.67c-3.68.85-7,2.18-8.93,5.55-1.15,2-3.19,3.58-3.8,5.84a4.81,4.81,0,0,0,1.33,4.75,4.19,4.19,0,0,0,4.82.54c3.29-2,2.22-9.19,6.66-9a.92.92,0,0,1,.56-1,2.66,2.66,0,0,1,1.19-.15,1.21,1.21,0,0,1,.54.09C132.1,135.51,132.15,136.08,132.16,136.45Z"/><path class="cls-10" d="M129.66,146.58a3.18,3.18,0,0,1,.64-3.06"/><path class="cls-11" d="M218.13,133.72c-1.9,4.85-5.62,8.82-7.46,13.69"/><path class="cls-1" d="M351.86,272.65a4.25,4.25,0,0,0,2.22,6.15,10.62,10.62,0,0,0,4.82.72,44.94,44.94,0,0,0,15-3.55c4.23-1.69,9.29-3.39,12.57-6.64.83-.82,1.39-2.15.75-3.12a3.23,3.23,0,0,0-2.26-1.1,46.9,46.9,0,0,0-19.34.81C362,266.83,354.08,268.64,351.86,272.65Z"/><path d="M378.66,223.83a4.35,4.35,0,0,1,.06-.52c.31-1.87,1.78-3.29,2.79-4.9a10.85,10.85,0,0,0,1.62-5.22c.14-3.45,0-7.88,1.53-11.08,1.34-2.88,4.52-4.45,6.16-7.15a17,17,0,0,0,1.58-5,17.5,17.5,0,0,1,3.48-7.49,24.51,24.51,0,0,1,5-4.07,25.55,25.55,0,0,1,5.51-3c2.6-.92,5.5-1.23,6.7,1.46,1,2.17.49,5.24-.54,7.28a22.31,22.31,0,0,1-3.65,4.7,67.45,67.45,0,0,0-6.32,8.17,6.42,6.42,0,0,0-1.18,2.61,11.93,11.93,0,0,0,.28,2.78c.6,4.7-1.34,8.5-5,11.36-2.87,2.26-4.66,3.54-5.38,7.45-.45,2.42-.65,5-2,7.05a23.75,23.75,0,0,1-1.92,2.33,18.27,18.27,0,0,0-4.26,10.15c-.16,1.86-.55,6.05-3.54,5.21-3.65-1-3.21-11.71-2.14-14.23a16.45,16.45,0,0,0,1.36-3.22C379.17,227,378.58,225.37,378.66,223.83Z"/><path class="cls-10" d="M363.19,231.61a12.62,12.62,0,0,1,.65-4.24c.57-1.78,1.52-3.56,1.24-5.41-.47-3.05-4-4.72-5.09-7.61-1.5-4,2-7.94,2.82-12.1.67-3.52-.68-7.07-1.6-10.55-.39-1.49-2.62-10,1.81-8.67a2.83,2.83,0,0,1,1.49,1.53c2.15,4.09,2.69,9.27,6.12,12.63,1.4,1.38,3.22,2.3,4.55,3.75a10.6,10.6,0,0,1,2.25,8.77c-.84,5.39-6.16,9-4,14.52a46.83,46.83,0,0,0,3.64,6.42c2.57,4.41,7.8,22.11-2.72,16C368.74,243.4,363.33,238.13,363.19,231.61Z"/><path class="cls-10" d="M383.93,232l.18-.35c1.31-2.5,3.05-4.75,4.4-7.23,1.1-2,1.93-4.17,3.14-6.11a9.79,9.79,0,0,1,5.11-4.37,5.34,5.34,0,0,1,4.6.85c.34.33.61.74.94,1.08a10.56,10.56,0,0,0,2.16,1.44c3.79,2.29,5.42,6.61,6.8,10.59,1.51,4.36,3.35,8.06,4,12.65.13,1,.23,2.22-.49,3a2.35,2.35,0,0,1-2.45.45,6.23,6.23,0,0,1-2.17-1.47,9.48,9.48,0,0,1-2.17-2.63c-.43-.86-.62-1.84-1.11-2.67a10.46,10.46,0,0,0-2.41-2.47c-2.55-2.2-4.11-4.84-5.93-7.59-1.83.75-3.63,3.14-5.6,4.19-1.73.92-4.63,1.25-5.59,3.17s-.5,4.63-1.18,6.7c-1.52,4.61-5.07,3.95-4.58-1A23.76,23.76,0,0,1,383.93,232Z"/><polygon points="395.13 240.78 361.15 240.78 361.15 245.03 363.88 245.03 367.88 267.68 388.41 267.68 392.4 245.03 395.13 245.03 395.13 240.78"/><line class="cls-11" x1="362.92" y1="245.38" x2="393.36" y2="245.38"/><circle cx="362.81" cy="211.55" r="0.83"/><path d="M371.1,214.86a.83.83,0,1,1-.83-.82A.83.83,0,0,1,371.1,214.86Z"/><path d="M369.44,224a.83.83,0,1,1-.83-.83A.83.83,0,0,1,369.44,224Z"/><path d="M374.41,205.75a.83.83,0,1,1-.82-.83A.83.83,0,0,1,374.41,205.75Z"/><path d="M364.47,189.18a.83.83,0,1,1-.83-.83A.83.83,0,0,1,364.47,189.18Z"/><circle cx="375.24" cy="233.92" r="0.83"/><path d="M368.61,232.27a.83.83,0,1,1-1.65,0,.83.83,0,1,1,1.65,0Z"/><path d="M367.78,201.61a.83.83,0,1,1-.82-.83A.82.82,0,0,1,367.78,201.61Z"/><path class="cls-1" d="M207.77,320.82c-5.63-1.13-11.2-2.55-16.72-4.08-5.2-1.44-10.66-3.18-14.15-7.28-10.5-12.31,6.61-25,15.67-30.32,7.4-4.34,16.21-9.42,25-8.14,5,.72,9.73,2.77,14.34,4.87,15.37,7,30.73,14.87,47.47,17.13,3.5.48,32.59,1.25,31.26,6a4.29,4.29,0,0,1-1.6,2c-6.11,4.95-13.73,7.59-21.19,10.09-18.84,6.33-38.17,12.44-58,12.24A118.93,118.93,0,0,1,207.77,320.82Z"/><path d="M218.11,283.75c-2.44,4.47,1.37,7.69,4.55,10.68a10.33,10.33,0,0,0,2.9,2.07c1.91.82,4.07.62,6.12.4A446.48,446.48,0,0,0,276,290.15c3.42-.74,6.8-1.63,10.2-2.4a91.87,91.87,0,0,0,13.27-4.62A42.58,42.58,0,0,0,311.29,276l.18-.16a4.09,4.09,0,0,0,1.56-1.56c1.83-2.08,3.09-4.67,2-7.1-1.21-2.79-4.74-3.58-7.78-3.82-9.05-.72-18.12.25-27.07,1.6-6,.91-12,2.19-18.07,2.94s-12,.08-18.16.22A30.68,30.68,0,0,0,218.11,283.75Z"/><path class="cls-10" d="M244.39,261.72c-3.74-1.48-7.6-.09-9.66-4.35a40.86,40.86,0,0,1-1.65-4.86,20.7,20.7,0,0,0-10.15-11.71c3.69-3.48,8.63-5.21,13.12-7.55a50.7,50.7,0,0,0,11.34-8c3.12-2.92,8-9.21,5.36-13.76-2.08-3.67-7.24-2.53-10.58-1.68-4.64,1.19-8.7,1.41-12.89,4.15-4,2.64-7.37,6.2-10.63,9.76-5.09,5.55-16.19,16.4-8.93,24.19A84.24,84.24,0,0,0,223,260a25.77,25.77,0,0,0,4.39,2.58c3.08,1.36,4.27,3.87,7.36,5.25a22.62,22.62,0,0,0,8.12,2.13c2.09.1,5.48-.38,5.68-2.9S246.36,262.5,244.39,261.72Z"/><path class="cls-10" d="M296.77,254.92c-1.82,2.4-4.87,4-7.78,3.31-3.08-.73-5.12-3.6-6.78-6.3a53.1,53.1,0,0,1-6.41-13.61c-1.45-5.35-2.13-13.86,3.18-17.41,3.77-2.53,9.95-1.1,12.86,2.13,6.31,7,10.48,22.19,5.61,30.85A9.64,9.64,0,0,1,296.77,254.92Z"/><path d="M287.14,212.18c-4.67-4.94-10.22-8.57-17.49-8.39-2,.05-3.91.37-5.87.44-6.88.24-13.69-1.48-20.32,1.17a97.89,97.89,0,0,0-19.84,11.25c-.5.35,11.61,16.95,12.89,18.46,5-3.67,3.81,13.62,3.73,16-.2,5.82-.35,11.7.85,17.44a2.07,2.07,0,0,1,1.12-.95c.59-.13,1,.59,1.48.72a17.8,17.8,0,0,0,3.86,0c2.23,0,4.46,0,6.68,0a117.35,117.35,0,0,0,15.35-.77,50.8,50.8,0,0,1,7.93-.71c1.4-4.83.91-10.65,1.05-15.45.14-4.61-.23-9.14.12-13.74a142.69,142.69,0,0,0,19.26-6.22c.37-.15-3-7.83-3.37-8.57a42.21,42.21,0,0,0-5.23-8.11C288.63,213.81,287.9,213,287.14,212.18Z"/><path class="cls-10" d="M250.66,298.39c-.95.95-20.95,5.34-20.95,5.34l-.94-10.17,18.61-6.66Z"/><path d="M301.28,286.24a51,51,0,0,1,7.19-3.63c2.67-1,5.62-1.61,7.68-3.59s2.86-5.25,3.44-8.21a22.76,22.76,0,0,0-.27-10.22,13.53,13.53,0,0,0-9.74-9.57,12.77,12.77,0,0,0-8.51,1c-1.92,1-3.56,2.41-5.46,3.42a45.74,45.74,0,0,1-5,2c-5.08,2-9.75,4.93-14.37,7.73s-8.81,6.34-13.3,9.38c-1.77,1.19-20.41,10.24-20.41,10.25,2.42,5.38,4.53,10.91,6.74,16.4,12.05-1.63,23.67-5.42,35.39-8.57,2.32-.63,4.48-1.56,6.81-2.09a29.42,29.42,0,0,0,7.44-3C299.73,287.13,300.51,286.68,301.28,286.24Z"/><path d="M229,304.8c-3.69.73-7.39-.06-11.37-.49-3.1-.34-6.28.24-9.36-.24-4.12-.63-7.32-3.55-7.62-7.66-.17-2.32-.26-4.9,1.27-6.65a6.14,6.14,0,0,1,5.21-1.74,23.64,23.64,0,0,1,5.48,1.52,80.61,80.61,0,0,0,9.42,2.49c2.57.55,4.79,1.83,7.34.56a.56.56,0,0,1,.43-.09c.16.05.23.23.29.38q1.35,3.84,2.45,7.76c.38,1.36,1,2.15-.11,3A9.14,9.14,0,0,1,229,304.8Z"/><path class="cls-10" d="M268.9,298.39c1,.95,21,5.34,21,5.34l.95-10.17-18.62-6.66Z"/><path d="M217.6,287.43a68.71,68.71,0,0,1-11.13-5.29,11.45,11.45,0,0,1-3.22-2.6,12.64,12.64,0,0,1-2-5.49c-1.36-7.2-3.3-12.68,1.91-18.79,4.25-5,11.06-6.9,16.83-3.31,3.75,2.34,6.27,6.57,10.43,8,2.25.79,4.81.63,7,1.64a64.9,64.9,0,0,1,5.86,3.6c4.65,2.81,8.81,6.34,13.3,9.38,1.78,1.19,20.42,10.24,20.41,10.25-2.41,5.38-4.52,10.91-6.73,16.4-12.06-1.63-23.67-5.42-35.39-8.57C229.07,291.13,223.22,289.55,217.6,287.43Z"/><path d="M290.53,304.8c3.69.73,7.39-.06,11.37-.49,3.1-.34,6.28.24,9.37-.24,3.9-.6,8.34-4.47,8.52-8.6a9.13,9.13,0,0,0-.78-3.77,7,7,0,0,0-1-1.78,5.69,5.69,0,0,0-4-2c-2.34-.22-4.68.54-6.89,1.18a53.73,53.73,0,0,0-6.59,2,17.2,17.2,0,0,1-9.07,1.25,5.67,5.67,0,0,0-2.39,0c-1.73.5-1.56,3.11-1.69,4.54a20.68,20.68,0,0,1-1.17,6.38A13.73,13.73,0,0,0,290.53,304.8Z"/><path class="cls-10" d="M281.61,221.17v-.08l-.15-2.53a5.74,5.74,0,0,1,0-1.31,6,6,0,0,1,2.25-3.21c.74-.68,7-6.82,7.51-6.47,2,1.49,3.17.16,4.6-1.37a2.45,2.45,0,0,0,.87-1.65c0-.64-.78-1.24-1.3-.87,1.14-1.26,2.24-2.55,3.32-3.86.95-1.16,1.89-1.87,1.24-3.4a11.29,11.29,0,0,0-5.61-5.5c-1.91-.93-5-2.24-7.12-2.08-2.38.18-3.61,2.19-5.41,3.42a.46.46,0,0,1-.26.11c-.11,0-.2-.11-.29-.18a2,2,0,0,0-2.47,0,4.91,4.91,0,0,0-1.46,2.21,3.15,3.15,0,0,0-.28,1.67,1.2,1.2,0,0,0,1.18,1c-.45.07-1.19,3.47-1.32,3.91-.61,2.16-1.94,3.38-3.45,5-1.36,1.5-3,3.13-5,3-.9,0-2-.34-2.53.4a1.63,1.63,0,0,0-.25.86c-.36,4.46,2.5,8.4,6.09,10.74C273.62,222.37,281.78,225.72,281.61,221.17Z"/><rect class="cls-14" x="227.49" y="239.43" width="54.53" height="34.21" rx="1.66"/><path class="cls-9" d="M258,255.47a3.21,3.21,0,1,1-3.2-3.21A3.2,3.2,0,0,1,258,255.47Z"/><path d="M304.84,190.37a4.3,4.3,0,0,0-.26-1,3.73,3.73,0,0,0-1.7-2,5.34,5.34,0,0,0-2-.48,16.43,16.43,0,0,0-2.43,0,20.34,20.34,0,0,1-2.34.09,12.44,12.44,0,0,1-3.51-.95,12.48,12.48,0,0,0-3.51-1c-2.53-.2-4.31,1.72-5.83,3.5a36.41,36.41,0,0,0-4.23,6.59c-2.4,4.45-3.13,10,1.38,13.42,5.92,4.53,13-1.65,17.4-5.43a24,24,0,0,0,2.74-2.2,17.13,17.13,0,0,0,2.23-3.35,24.36,24.36,0,0,0,1.61-3.57A7.81,7.81,0,0,0,304.84,190.37Zm-20.15,15a7.05,7.05,0,0,1-2.66-1.08c-.54-.42.09-1.29.6-.86a6.24,6.24,0,0,0,2.33.93C285.54,204.51,285.27,205.49,284.69,205.36Zm14.12-7.81a5.27,5.27,0,0,1-1,1.76c-1.87,2.47-4.58,5.59-7.3,7.13l-.31.17c-.73-2.54-1.66-5.06-4-6.56a10,10,0,0,0-6.8-1.2c.84-3.52,3.53-8.92,7.64-9a7.34,7.34,0,0,1,4.22,1.56c1.25.87,2.37,1.93,3.65,2.76C296.39,195.14,299.4,195.31,298.81,197.55Z"/><path class="cls-10" d="M290,209.32c.12-.31.26-.61.4-.91,1.11-2.31,3.57-3.28,5.48-4.92,1.19-1,2.39-1.81,3.62-2.75.59-.45,1.08-1.13,1.69-1.51a1.13,1.13,0,0,1,1.3,0,1.44,1.44,0,0,1,.37,1c.16,2.39-1.17,4.23-2.33,6.15-1,1.68-2.62,2.73-3.68,4.36s-.87,3.67-.66,5.57l1,9.57a62.58,62.58,0,0,0,1.79,8.39c1.1,4.44,1,9.61,1.12,14.16s-2.94,10.05-7.69,11c-9.54,1.93-7.47-11.55-7.72-17-.2-4.31.83-8.71,1.8-12.86,1-4.34,1.13-8.83,1.76-13.23A30.85,30.85,0,0,1,290,209.32Z"/><path class="cls-9" d="M290,254.64a5,5,0,0,1-.06,1.12,2.11,2.11,0,0,1-1.58,1.8,2.85,2.85,0,0,1-2.32-1.2,14.2,14.2,0,0,1-3.65-9.75,5.11,5.11,0,0,1,.71-2.93,2.12,2.12,0,0,1,2.67-.77,3.15,3.15,0,0,1,1.11,1.71l2.43,6.55A11.94,11.94,0,0,1,290,254.64Z"/><path d="M293.37,255.47a2.29,2.29,0,0,1-1.51.45c-.4,0-.46.59-.09.69a1.84,1.84,0,0,0,2.11-.63C294.1,255.68,293.67,255.28,293.37,255.47Z"/><path d="M211.07,243.17a1.77,1.77,0,0,1-.59-1.51.81.81,0,0,0-.55-1,.79.79,0,0,0-1,.55,3.38,3.38,0,0,0,1,3C210.69,245,211.81,243.86,211.07,243.17Z"/><path class="cls-11" d="M241.13,295.19q7.47,1.83,15.08,3"/><path class="cls-11" d="M274.64,290.44q1-2.38,2.14-4.71c-6.48-3.64-12.81-7.52-19.23-11.26"/><path class="cls-11" d="M232.83,291.86A98.84,98.84,0,0,1,219,287.44"/></g></g></svg>